<svg id="Layer_1" enable-background="new 0 0 512 512" height="512" viewBox="0 0 512 512" width="512" xmlns="http://www.w3.org/2000/svg"><g><path d="m41.922 74.583c9.992 0 10.008-15 0-15-9.992 0-10.008 15 0 15z"/><path d="m68.755 74.583c9.992 0 10.008-15 0-15-9.992 0-10.008 15 0 15z"/><path d="m95.589 74.583c9.992 0 10.008-15 0-15-9.992 0-10.009 15 0 15z"/><g><path d="m504.5 31h-46.164c-9.697 0-9.697 15 0 15h38.664v42.167h-482v-42.167h403.349c9.697 0 9.697-15 0-15h-410.849c-4.142 0-7.5 3.357-7.5 7.5v435c0 4.143 3.358 7.5 7.5 7.5h497c4.142 0 7.5-3.357 7.5-7.5v-435c0-4.143-3.358-7.5-7.5-7.5zm-489.5 435v-362.833h482v362.833z"/><path d="m348 190.167h-36.008c.452-30.751-25.23-56.834-55.992-56.834-30.753 0-56.444 26.091-55.992 56.834h-35.008c-4.142 0-7.5 3.357-7.5 7.5v31.333c0 9.697 15 9.697 15 0v-23.833h29.782c16.788 53.197 90.683 53.175 107.436 0h30.782v148h-168v-87.832c0-9.697-15-9.697-15 0v95.332c0 4.143 3.358 7.5 7.5 7.5h183c4.142 0 7.5-3.357 7.5-7.5v-163c0-4.143-3.358-7.5-7.5-7.5zm-92-41.834c30.041-.286 50.289 32.417 36.785 59.091-3.592-5.345-8.334-9.893-13.918-13.264 5.658-15.287-6.49-32.555-22.868-32.245-16.375-.31-28.531 16.963-22.866 32.248-5.56 3.363-10.311 7.913-13.915 13.27-13.557-26.675 6.867-59.457 36.782-59.1zm-9.23 37.812c0-5.09 4.141-9.23 9.23-9.23s9.23 4.141 9.23 9.23c0 11.93-18.46 11.93-18.46 0zm-17.595 34.166c2.663-6.039 7.332-11.056 13.191-14.146 8.135 5.557 19.133 5.557 27.268 0 5.896 3.107 10.541 8.126 13.192 14.146-15.088 13.081-38.54 13.102-53.651 0z"/><path d="m283.334 389.058h-54.668c-4.142 0-7.5 3.357-7.5 7.5v29.215c0 4.143 3.358 7.5 7.5 7.5h54.668c4.142 0 7.5-3.357 7.5-7.5v-29.215c0-4.143-3.358-7.5-7.5-7.5zm-7.5 29.214h-39.668v-14.215h39.668z"/><path d="m206.084 286.667h100.832c9.697 0 9.697-15 0-15h-100.832c-9.697 0-9.697 15 0 15z"/><path d="m206.084 322.193h100.832c9.697 0 9.697-15 0-15h-100.832c-9.697 0-9.697 15 0 15z"/></g></g></svg>